<mxfile host="app.diagrams.net" modified="2023-04-05T09:21:35.122Z" agent="Mozilla/5.0 (Windows NT 10.0; Win64; x64) AppleWebKit/537.36 (KHTML, like Gecko) Chrome/111.0.0.0 Safari/537.36" etag="pMM2fOuHBMocnxizmlEJ" version="21.1.4" type="github">
  <diagram name="Page-1" id="N2g2hcwu7XXq2jWU6Kqr">
    <mxGraphModel dx="858" dy="1109" grid="1" gridSize="10" guides="1" tooltips="1" connect="1" arrows="1" fold="1" page="1" pageScale="1" pageWidth="850" pageHeight="1100" math="0" shadow="0">
      <root>
        <mxCell id="0" />
        <mxCell id="1" parent="0" />
        <mxCell id="8GLgPUgyX6wH-AOldtTd-1" value="Start" style="html=1;dashed=0;whitespace=wrap;shape=mxgraph.dfd.start" parent="1" vertex="1">
          <mxGeometry x="120" y="180" width="80" height="30" as="geometry" />
        </mxCell>
        <mxCell id="8GLgPUgyX6wH-AOldtTd-3" value="RED, OUTPUT&lt;br&gt;YLW, OUTPUT&lt;br&gt;GRN, OUTPUT" style="shape=parallelogram;perimeter=parallelogramPerimeter;whiteSpace=wrap;html=1;fixedSize=1;" parent="1" vertex="1">
          <mxGeometry x="100" y="300" width="120" height="45" as="geometry" />
        </mxCell>
        <mxCell id="8GLgPUgyX6wH-AOldtTd-4" value="define RED 5&lt;br&gt;define YLW 18&lt;br&gt;define GRN19" style="rounded=1;whiteSpace=wrap;html=1;absoluteArcSize=1;arcSize=14;strokeWidth=1;" parent="1" vertex="1">
          <mxGeometry x="110" y="230" width="100" height="50" as="geometry" />
        </mxCell>
        <mxCell id="8GLgPUgyX6wH-AOldtTd-5" value="digitalWrite(RED, HIGH);&lt;br&gt;digitalWrite(GREEN, LOW);" style="rounded=1;whiteSpace=wrap;html=1;absoluteArcSize=1;arcSize=14;strokeWidth=1;" parent="1" vertex="1">
          <mxGeometry x="75" y="370" width="170" height="50" as="geometry" />
        </mxCell>
        <mxCell id="8SlWsy-v9T1XmCmZc33t-8" style="edgeStyle=orthogonalEdgeStyle;rounded=0;orthogonalLoop=1;jettySize=auto;html=1;exitX=0.5;exitY=1;exitDx=0;exitDy=0;entryX=0.5;entryY=0;entryDx=0;entryDy=0;entryPerimeter=0;" edge="1" parent="1" source="8GLgPUgyX6wH-AOldtTd-6" target="8SlWsy-v9T1XmCmZc33t-7">
          <mxGeometry relative="1" as="geometry" />
        </mxCell>
        <mxCell id="8GLgPUgyX6wH-AOldtTd-6" value="delay 4000" style="shape=delay;whiteSpace=wrap;html=1;strokeWidth=1;" parent="1" vertex="1">
          <mxGeometry x="120" y="450" width="80" height="40" as="geometry" />
        </mxCell>
        <mxCell id="8GLgPUgyX6wH-AOldtTd-9" value="" style="endArrow=classic;html=1;rounded=0;entryX=0.5;entryY=0;entryDx=0;entryDy=0;exitX=0.5;exitY=0.5;exitDx=0;exitDy=15;exitPerimeter=0;" parent="1" source="8GLgPUgyX6wH-AOldtTd-1" target="8GLgPUgyX6wH-AOldtTd-4" edge="1">
          <mxGeometry width="50" height="50" relative="1" as="geometry">
            <mxPoint x="160" y="170" as="sourcePoint" />
            <mxPoint x="450" y="361.99" as="targetPoint" />
          </mxGeometry>
        </mxCell>
        <mxCell id="8GLgPUgyX6wH-AOldtTd-10" value="" style="endArrow=classic;html=1;rounded=0;exitX=0.5;exitY=1;exitDx=0;exitDy=0;entryX=0.5;entryY=0;entryDx=0;entryDy=0;" parent="1" source="8GLgPUgyX6wH-AOldtTd-4" target="8GLgPUgyX6wH-AOldtTd-3" edge="1">
          <mxGeometry width="50" height="50" relative="1" as="geometry">
            <mxPoint x="170" y="221.99" as="sourcePoint" />
            <mxPoint x="170" y="251.99" as="targetPoint" />
          </mxGeometry>
        </mxCell>
        <mxCell id="8GLgPUgyX6wH-AOldtTd-11" value="" style="endArrow=classic;html=1;rounded=0;exitX=0.5;exitY=1;exitDx=0;exitDy=0;entryX=0.5;entryY=0;entryDx=0;entryDy=0;" parent="1" source="8GLgPUgyX6wH-AOldtTd-3" target="8GLgPUgyX6wH-AOldtTd-5" edge="1">
          <mxGeometry width="50" height="50" relative="1" as="geometry">
            <mxPoint x="180" y="231.99" as="sourcePoint" />
            <mxPoint x="180" y="261.99" as="targetPoint" />
          </mxGeometry>
        </mxCell>
        <mxCell id="8GLgPUgyX6wH-AOldtTd-12" value="" style="endArrow=classic;html=1;rounded=0;exitX=0.5;exitY=1;exitDx=0;exitDy=0;entryX=0.5;entryY=0;entryDx=0;entryDy=0;" parent="1" source="8GLgPUgyX6wH-AOldtTd-5" target="8GLgPUgyX6wH-AOldtTd-6" edge="1">
          <mxGeometry width="50" height="50" relative="1" as="geometry">
            <mxPoint x="190" y="241.99" as="sourcePoint" />
            <mxPoint x="190" y="271.99" as="targetPoint" />
          </mxGeometry>
        </mxCell>
        <mxCell id="8SlWsy-v9T1XmCmZc33t-26" style="edgeStyle=orthogonalEdgeStyle;rounded=0;orthogonalLoop=1;jettySize=auto;html=1;exitX=0.5;exitY=1;exitDx=0;exitDy=0;exitPerimeter=0;entryX=0.5;entryY=0;entryDx=0;entryDy=0;" edge="1" parent="1" source="8SlWsy-v9T1XmCmZc33t-7" target="8SlWsy-v9T1XmCmZc33t-23">
          <mxGeometry relative="1" as="geometry" />
        </mxCell>
        <mxCell id="8SlWsy-v9T1XmCmZc33t-28" style="edgeStyle=orthogonalEdgeStyle;rounded=0;orthogonalLoop=1;jettySize=auto;html=1;exitX=1;exitY=0.5;exitDx=0;exitDy=0;exitPerimeter=0;entryX=0;entryY=0.5;entryDx=0;entryDy=0;" edge="1" parent="1" source="8SlWsy-v9T1XmCmZc33t-7" target="8SlWsy-v9T1XmCmZc33t-10">
          <mxGeometry relative="1" as="geometry" />
        </mxCell>
        <mxCell id="8SlWsy-v9T1XmCmZc33t-7" value="for(int i = 0;&lt;br&gt;i &amp;lt; 4;&lt;br&gt;i++)" style="strokeWidth=1;html=1;shape=mxgraph.flowchart.decision;whiteSpace=wrap;" vertex="1" parent="1">
          <mxGeometry x="100" y="520" width="120" height="90" as="geometry" />
        </mxCell>
        <mxCell id="8SlWsy-v9T1XmCmZc33t-13" style="edgeStyle=orthogonalEdgeStyle;rounded=0;orthogonalLoop=1;jettySize=auto;html=1;exitX=0.5;exitY=1;exitDx=0;exitDy=0;entryX=0.5;entryY=0;entryDx=0;entryDy=0;" edge="1" parent="1" source="8SlWsy-v9T1XmCmZc33t-10" target="8SlWsy-v9T1XmCmZc33t-12">
          <mxGeometry relative="1" as="geometry" />
        </mxCell>
        <mxCell id="8SlWsy-v9T1XmCmZc33t-10" value="digitalWrite(YELLOW, HIGH);" style="rounded=1;whiteSpace=wrap;html=1;absoluteArcSize=1;arcSize=14;strokeWidth=1;" vertex="1" parent="1">
          <mxGeometry x="310" y="545" width="170" height="40" as="geometry" />
        </mxCell>
        <mxCell id="8SlWsy-v9T1XmCmZc33t-19" style="edgeStyle=orthogonalEdgeStyle;rounded=0;orthogonalLoop=1;jettySize=auto;html=1;exitX=0.5;exitY=1;exitDx=0;exitDy=0;entryX=0.5;entryY=0;entryDx=0;entryDy=0;" edge="1" parent="1" source="8SlWsy-v9T1XmCmZc33t-12" target="8SlWsy-v9T1XmCmZc33t-17">
          <mxGeometry relative="1" as="geometry" />
        </mxCell>
        <mxCell id="8SlWsy-v9T1XmCmZc33t-12" value="delay 500" style="shape=delay;whiteSpace=wrap;html=1;strokeWidth=1;" vertex="1" parent="1">
          <mxGeometry x="355" y="610" width="80" height="40" as="geometry" />
        </mxCell>
        <mxCell id="8SlWsy-v9T1XmCmZc33t-16" style="edgeStyle=orthogonalEdgeStyle;rounded=0;orthogonalLoop=1;jettySize=auto;html=1;exitX=0.5;exitY=1;exitDx=0;exitDy=0;entryX=0.5;entryY=0;entryDx=0;entryDy=0;" edge="1" parent="1" source="8SlWsy-v9T1XmCmZc33t-17" target="8SlWsy-v9T1XmCmZc33t-18">
          <mxGeometry relative="1" as="geometry" />
        </mxCell>
        <mxCell id="8SlWsy-v9T1XmCmZc33t-17" value="digitalWrite(YELLOW, LOW);" style="rounded=1;whiteSpace=wrap;html=1;absoluteArcSize=1;arcSize=14;strokeWidth=1;" vertex="1" parent="1">
          <mxGeometry x="310" y="670" width="170" height="40" as="geometry" />
        </mxCell>
        <mxCell id="8SlWsy-v9T1XmCmZc33t-29" style="edgeStyle=orthogonalEdgeStyle;rounded=0;orthogonalLoop=1;jettySize=auto;html=1;exitX=0.5;exitY=1;exitDx=0;exitDy=0;entryX=0.5;entryY=0;entryDx=0;entryDy=0;entryPerimeter=0;" edge="1" parent="1" source="8SlWsy-v9T1XmCmZc33t-18" target="8SlWsy-v9T1XmCmZc33t-7">
          <mxGeometry relative="1" as="geometry">
            <mxPoint x="180" y="550" as="targetPoint" />
            <Array as="points">
              <mxPoint x="395" y="780" />
              <mxPoint x="520" y="780" />
              <mxPoint x="520" y="500" />
              <mxPoint x="160" y="500" />
            </Array>
          </mxGeometry>
        </mxCell>
        <mxCell id="8SlWsy-v9T1XmCmZc33t-18" value="delay 500" style="shape=delay;whiteSpace=wrap;html=1;strokeWidth=1;" vertex="1" parent="1">
          <mxGeometry x="355" y="730" width="80" height="40" as="geometry" />
        </mxCell>
        <mxCell id="8SlWsy-v9T1XmCmZc33t-20" value="false" style="text;html=1;strokeColor=none;fillColor=none;align=center;verticalAlign=middle;whiteSpace=wrap;rounded=0;" vertex="1" parent="1">
          <mxGeometry x="210" y="570" width="60" height="30" as="geometry" />
        </mxCell>
        <mxCell id="8SlWsy-v9T1XmCmZc33t-21" value="true" style="text;html=1;strokeColor=none;fillColor=none;align=center;verticalAlign=middle;whiteSpace=wrap;rounded=0;" vertex="1" parent="1">
          <mxGeometry x="100" y="610" width="60" height="20" as="geometry" />
        </mxCell>
        <mxCell id="8SlWsy-v9T1XmCmZc33t-33" style="edgeStyle=orthogonalEdgeStyle;rounded=0;orthogonalLoop=1;jettySize=auto;html=1;exitX=0.5;exitY=1;exitDx=0;exitDy=0;entryX=0.5;entryY=0;entryDx=0;entryDy=0;" edge="1" parent="1" source="8SlWsy-v9T1XmCmZc33t-23" target="8SlWsy-v9T1XmCmZc33t-24">
          <mxGeometry relative="1" as="geometry" />
        </mxCell>
        <mxCell id="8SlWsy-v9T1XmCmZc33t-23" value="digitalWrite(RED, LOW);&lt;br&gt;digitalWrite(YELLOW, LOW);&lt;br&gt;digitalWrite(GREEN, HIGH);" style="rounded=1;whiteSpace=wrap;html=1;absoluteArcSize=1;arcSize=14;strokeWidth=1;" vertex="1" parent="1">
          <mxGeometry x="75" y="650" width="170" height="50" as="geometry" />
        </mxCell>
        <mxCell id="8SlWsy-v9T1XmCmZc33t-35" style="edgeStyle=orthogonalEdgeStyle;rounded=0;orthogonalLoop=1;jettySize=auto;html=1;exitX=0.5;exitY=1;exitDx=0;exitDy=0;entryX=0.5;entryY=0;entryDx=0;entryDy=0;entryPerimeter=0;" edge="1" parent="1" source="8SlWsy-v9T1XmCmZc33t-24" target="8SlWsy-v9T1XmCmZc33t-34">
          <mxGeometry relative="1" as="geometry" />
        </mxCell>
        <mxCell id="8SlWsy-v9T1XmCmZc33t-24" value="delay 4000" style="shape=delay;whiteSpace=wrap;html=1;strokeWidth=1;" vertex="1" parent="1">
          <mxGeometry x="120" y="720" width="80" height="40" as="geometry" />
        </mxCell>
        <mxCell id="8SlWsy-v9T1XmCmZc33t-43" style="edgeStyle=orthogonalEdgeStyle;rounded=0;orthogonalLoop=1;jettySize=auto;html=1;exitX=1;exitY=0.5;exitDx=0;exitDy=0;exitPerimeter=0;entryX=0;entryY=0.5;entryDx=0;entryDy=0;" edge="1" parent="1" source="8SlWsy-v9T1XmCmZc33t-34" target="8SlWsy-v9T1XmCmZc33t-37">
          <mxGeometry relative="1" as="geometry" />
        </mxCell>
        <mxCell id="8SlWsy-v9T1XmCmZc33t-46" style="edgeStyle=orthogonalEdgeStyle;rounded=0;orthogonalLoop=1;jettySize=auto;html=1;exitX=0.5;exitY=1;exitDx=0;exitDy=0;exitPerimeter=0;entryX=0;entryY=0.5;entryDx=0;entryDy=0;" edge="1" parent="1" source="8SlWsy-v9T1XmCmZc33t-34" target="8GLgPUgyX6wH-AOldtTd-5">
          <mxGeometry relative="1" as="geometry">
            <Array as="points">
              <mxPoint x="160" y="960" />
              <mxPoint x="55" y="960" />
              <mxPoint x="55" y="395" />
            </Array>
          </mxGeometry>
        </mxCell>
        <mxCell id="8SlWsy-v9T1XmCmZc33t-34" value="for(int i = 0;&lt;br&gt;i &amp;lt; 4;&lt;br&gt;i++)" style="strokeWidth=1;html=1;shape=mxgraph.flowchart.decision;whiteSpace=wrap;" vertex="1" parent="1">
          <mxGeometry x="100" y="820" width="120" height="90" as="geometry" />
        </mxCell>
        <mxCell id="8SlWsy-v9T1XmCmZc33t-36" style="edgeStyle=orthogonalEdgeStyle;rounded=0;orthogonalLoop=1;jettySize=auto;html=1;exitX=0.5;exitY=1;exitDx=0;exitDy=0;entryX=0.5;entryY=0;entryDx=0;entryDy=0;" edge="1" parent="1" source="8SlWsy-v9T1XmCmZc33t-37" target="8SlWsy-v9T1XmCmZc33t-39">
          <mxGeometry relative="1" as="geometry" />
        </mxCell>
        <mxCell id="8SlWsy-v9T1XmCmZc33t-37" value="digitalWrite(YELLOW, HIGH);" style="rounded=1;whiteSpace=wrap;html=1;absoluteArcSize=1;arcSize=14;strokeWidth=1;" vertex="1" parent="1">
          <mxGeometry x="310" y="845" width="170" height="40" as="geometry" />
        </mxCell>
        <mxCell id="8SlWsy-v9T1XmCmZc33t-38" style="edgeStyle=orthogonalEdgeStyle;rounded=0;orthogonalLoop=1;jettySize=auto;html=1;exitX=0.5;exitY=1;exitDx=0;exitDy=0;entryX=0.5;entryY=0;entryDx=0;entryDy=0;" edge="1" parent="1" source="8SlWsy-v9T1XmCmZc33t-39" target="8SlWsy-v9T1XmCmZc33t-41">
          <mxGeometry relative="1" as="geometry" />
        </mxCell>
        <mxCell id="8SlWsy-v9T1XmCmZc33t-39" value="delay 500" style="shape=delay;whiteSpace=wrap;html=1;strokeWidth=1;" vertex="1" parent="1">
          <mxGeometry x="355" y="905" width="80" height="40" as="geometry" />
        </mxCell>
        <mxCell id="8SlWsy-v9T1XmCmZc33t-40" style="edgeStyle=orthogonalEdgeStyle;rounded=0;orthogonalLoop=1;jettySize=auto;html=1;exitX=0.5;exitY=1;exitDx=0;exitDy=0;entryX=0.5;entryY=0;entryDx=0;entryDy=0;" edge="1" parent="1" source="8SlWsy-v9T1XmCmZc33t-41" target="8SlWsy-v9T1XmCmZc33t-42">
          <mxGeometry relative="1" as="geometry" />
        </mxCell>
        <mxCell id="8SlWsy-v9T1XmCmZc33t-41" value="digitalWrite(YELLOW, LOW);" style="rounded=1;whiteSpace=wrap;html=1;absoluteArcSize=1;arcSize=14;strokeWidth=1;" vertex="1" parent="1">
          <mxGeometry x="310" y="970" width="170" height="40" as="geometry" />
        </mxCell>
        <mxCell id="8SlWsy-v9T1XmCmZc33t-49" style="edgeStyle=orthogonalEdgeStyle;rounded=0;orthogonalLoop=1;jettySize=auto;html=1;exitX=0.5;exitY=1;exitDx=0;exitDy=0;entryX=0.5;entryY=0;entryDx=0;entryDy=0;entryPerimeter=0;" edge="1" parent="1" source="8SlWsy-v9T1XmCmZc33t-42" target="8SlWsy-v9T1XmCmZc33t-34">
          <mxGeometry relative="1" as="geometry">
            <Array as="points">
              <mxPoint x="395" y="1080" />
              <mxPoint x="520" y="1080" />
              <mxPoint x="520" y="800" />
              <mxPoint x="160" y="800" />
            </Array>
          </mxGeometry>
        </mxCell>
        <mxCell id="8SlWsy-v9T1XmCmZc33t-42" value="delay 500" style="shape=delay;whiteSpace=wrap;html=1;strokeWidth=1;" vertex="1" parent="1">
          <mxGeometry x="355" y="1030" width="80" height="40" as="geometry" />
        </mxCell>
        <mxCell id="8SlWsy-v9T1XmCmZc33t-44" value="false" style="text;html=1;strokeColor=none;fillColor=none;align=center;verticalAlign=middle;whiteSpace=wrap;rounded=0;" vertex="1" parent="1">
          <mxGeometry x="220" y="830" width="40" height="30" as="geometry" />
        </mxCell>
        <mxCell id="8SlWsy-v9T1XmCmZc33t-47" value="true" style="text;html=1;strokeColor=none;fillColor=none;align=center;verticalAlign=middle;whiteSpace=wrap;rounded=0;" vertex="1" parent="1">
          <mxGeometry x="100" y="910" width="60" height="20" as="geometry" />
        </mxCell>
        <mxCell id="8SlWsy-v9T1XmCmZc33t-50" value="&amp;lt;-- The flow will loop forever if fulfill the certain conditions." style="text;html=1;strokeColor=none;fillColor=none;align=center;verticalAlign=middle;whiteSpace=wrap;rounded=0;" vertex="1" parent="1">
          <mxGeometry x="280" y="380" width="210" height="30" as="geometry" />
        </mxCell>
        <mxCell id="8SlWsy-v9T1XmCmZc33t-51" value="&amp;lt;-- &#39;For loop&#39; to blink the yellow LED." style="text;html=1;strokeColor=none;fillColor=none;align=center;verticalAlign=middle;whiteSpace=wrap;rounded=0;" vertex="1" parent="1">
          <mxGeometry x="550" y="545" width="210" height="30" as="geometry" />
        </mxCell>
        <mxCell id="8SlWsy-v9T1XmCmZc33t-54" value="&amp;lt;-- &#39;For loop&#39; to blink the yellow LED." style="text;html=1;strokeColor=none;fillColor=none;align=center;verticalAlign=middle;whiteSpace=wrap;rounded=0;" vertex="1" parent="1">
          <mxGeometry x="550" y="850" width="210" height="30" as="geometry" />
        </mxCell>
      </root>
    </mxGraphModel>
  </diagram>
</mxfile>
